HIERARCHY
ROOT Hips
{
	OFFSET 0.000000 0.000000 0.000000 
	CHANNELS 6 Xposition Yposition Zposition Zrotation Yrotation Xrotation
	JOINT LeftUpLeg
	{
		OFFSET 1.363060 -1.794630 0.839290 
		CHANNELS 3 Zrotation Yrotation Xrotation
		JOINT LeftLeg
		{
			OFFSET 2.448110 -6.726130 0.000000 
			CHANNELS 3 Zrotation Yrotation Xrotation
			JOINT LeftFoot
			{
				OFFSET 2.562200 -7.039590 0.000000 
				CHANNELS 3 Zrotation Yrotation Xrotation
				JOINT LeftToeBase
				{
					OFFSET 0.157640 -0.433110 2.322550 
					CHANNELS 3 Zrotation Yrotation Xrotation
					End Site
					{
						OFFSET 0.000000 0.000000 0.000000 
					}
				}
			}
		}
	}
	JOINT RightUpLeg
	{
		OFFSET -1.305520 -1.794630 0.839290 
		CHANNELS 3 Zrotation Yrotation Xrotation
		JOINT RightLeg
		{
			OFFSET -2.542530 -6.985550 0.000000 
			CHANNELS 3 Zrotation Yrotation Xrotation
			JOINT RightFoot
			{
				OFFSET -2.568260 -7.056230 0.000000 
				CHANNELS 3 Zrotation Yrotation Xrotation
				JOINT RightToeBase
				{
					OFFSET -0.164730 -0.452590 2.363150 
					CHANNELS 3 Zrotation Yrotation Xrotation
					End Site
					{
						OFFSET 0.000000 0.000000 0.000000 
					}
				}
			}
		}
	}
	JOINT Spine
	{
		OFFSET 0.028270 2.035590 -0.193380 
		CHANNELS 3 Zrotation Yrotation Xrotation
		JOINT Spine1
		{
			OFFSET 0.056720 2.048850 -0.042750 
			CHANNELS 3 Zrotation Yrotation Xrotation
			JOINT Neck1
			{
				OFFSET -0.054170 1.746240 0.172020 
				CHANNELS 3 Zrotation Yrotation Xrotation
				JOINT Head
				{
					OFFSET 0.104070 1.761360 -0.123970 
					CHANNELS 3 Zrotation Yrotation Xrotation
					End Site
					{
						OFFSET 0.000000 0.000000 0.000000 
					}
				}
			}
			JOINT LeftArm
			{
				OFFSET 3.362410 1.200890 -0.311210 
				CHANNELS 3 Zrotation Yrotation Xrotation
				JOINT LeftForeArm
				{
					OFFSET 4.983000 -0.000000 -0.000000 
					CHANNELS 3 Zrotation Yrotation Xrotation
					JOINT LeftHand
					{
						OFFSET 3.483560 -0.000000 -0.000000 
						CHANNELS 3 Zrotation Yrotation Xrotation
						JOINT LeftHandIndex1
						{
							OFFSET 0.715260 -0.000000 -0.000000 
							CHANNELS 3 Zrotation Yrotation Xrotation
							End Site
							{
								OFFSET 0.000000 0.000000 0.000000 
							}
						}
					}
				}
			}
			JOINT RightArm
			{
				OFFSET -3.136600 1.374050 -0.404650 
				CHANNELS 3 Zrotation Yrotation Xrotation
				JOINT RightForeArm
				{
					OFFSET -5.241900 -0.000000 -0.000000 
					CHANNELS 3 Zrotation Yrotation Xrotation
					JOINT RightHand
					{
						OFFSET -3.444170 -0.000000 -0.000000 
						CHANNELS 3 Zrotation Yrotation Xrotation
						JOINT RightHandIndex1
						{
							OFFSET -0.622530 -0.000000 -0.000000 
							CHANNELS 3 Zrotation Yrotation Xrotation
							End Site
							{
								OFFSET 0.000000 0.000000 0.000000 
							}
						}
					}
				}
			}
		}
	}
}
MOTION
Frames: 18
Frame Time: 0.041667
0.035418 17.858969 -29.727182 0.903477 35.543353 3.912709 -9.831347 -13.834501 -7.373700 -0.197461 7.651160 20.186405 0.793350 -0.684418 4.873402 2.155500 -9.182700 -26.368700 15.254441 -11.485432 -6.718654 -1.083982 -8.671867 22.385860 7.666975 -31.933419 -20.410315 -0.000600 -0.162900 0.447600 4.683955 13.210543 -0.158788 6.799675 6.702926 -0.398231 -13.555649 26.599268 18.835124 -6.871900 13.448800 15.550800 -94.767163 1.144139 12.065060 13.548332 -21.753064 -2.356309 0.323938 0.378726 -4.862791 -7.125000 0.000000 0.000000 77.553579 2.545701 21.266458 -14.992194 24.016926 -3.064063 0.012544 -0.553101 -10.567064 7.125000 0.000000 0.000000 
0.038295 17.856390 -29.734722 0.897889 35.381401 3.785605 -9.882901 -13.753162 -7.268017 -0.192272 7.666101 20.218436 0.775784 -0.612281 4.813874 2.132700 -9.137100 -26.225300 15.194702 -11.458568 -6.629905 -1.094137 -8.694217 22.446796 7.657738 -31.883451 -20.293877 -0.000500 -0.151000 0.414900 3.776868 13.026310 -0.523716 4.936817 6.617325 -0.814745 -14.320826 26.620210 17.826204 -7.603200 13.652400 15.405400 -93.127271 1.326578 12.492883 13.636477 -21.815510 -2.378610 0.330023 0.394503 -5.001251 -7.125000 0.000000 0.000000 79.385006 2.340045 21.003281 -14.903105 23.961063 -3.047406 0.000610 -0.562840 -11.362186 7.125000 0.000000 0.000000 
0.043454 17.853612 -29.743552 0.985427 35.211217 3.735788 -10.017804 -13.674749 -7.187663 -0.187557 7.681253 20.252113 0.759853 -0.553437 4.734888 2.105200 -9.081900 -26.052000 15.033653 -11.520419 -6.591627 -1.102161 -8.709483 22.495385 7.603303 -31.706168 -20.209460 -0.000500 -0.142700 0.392000 2.855324 12.858422 -0.885056 3.121916 6.533594 -1.239033 -15.145786 26.626261 16.804877 -8.362900 13.841300 15.247500 -91.548792 1.514371 13.195510 13.792481 -21.965823 -2.416853 0.318772 0.389273 -5.502401 -7.125000 0.000000 0.000000 81.176743 2.084582 20.590933 -14.770211 23.842613 -3.009495 -0.002587 -0.571505 -11.288271 7.125000 0.000000 0.000000 
0.047026 17.850536 -29.751291 0.922515 35.096971 3.545600 -10.028401 -13.665352 -7.043051 -0.182609 7.697051 20.282440 0.734238 -0.442536 4.690360 2.083700 -9.038300 -25.915300 15.030835 -11.500269 -6.457996 -1.108107 -8.723945 22.538383 7.588656 -31.666511 -20.195907 -0.000500 -0.151200 0.415400 2.003904 12.685234 -1.328698 1.350175 6.433049 -1.788020 -14.715209 26.415032 16.407732 -8.388000 13.826600 14.966200 -89.860738 2.223888 14.812933 14.222067 -22.499810 -2.554315 0.316132 0.431297 -7.020673 -7.125000 0.000000 0.000000 82.593958 2.089568 20.293710 -14.280290 23.242532 -2.844267 -0.016523 -0.570923 -10.661461 7.125000 0.000000 0.000000 
0.050598 17.847758 -29.758136 0.916811 34.984054 3.417618 -10.081390 -13.645582 -6.917814 -0.179090 7.709302 20.305087 0.713134 -0.354141 4.639209 2.063000 -8.996000 -25.782900 14.978229 -11.504229 -6.357696 -1.114454 -8.738075 22.578801 7.570077 -31.607078 -20.156234 -0.000500 -0.147400 0.405000 1.418183 12.647339 -1.625982 0.176384 6.402705 -2.193868 -14.730292 26.175495 15.938352 -8.644800 13.806000 14.746300 -88.707103 2.586442 15.998254 14.445752 -22.762009 -2.623748 0.311267 0.445247 -7.648275 -7.125000 0.000000 0.000000 83.587725 1.810054 19.834779 -14.034438 22.944127 -2.764465 -0.022356 -0.573252 -10.591364 7.125000 0.000000 0.000000 
0.054268 17.845576 -29.764287 0.917217 34.876391 3.318262 -10.132887 -13.648063 -6.807852 -0.175235 7.721395 20.328910 0.688194 -0.250387 4.583464 2.042800 -8.954800 -25.653900 14.926220 -11.504394 -6.271879 -1.117885 -8.745253 22.597322 7.557953 -31.561890 -20.100416 -0.000500 -0.141700 0.389300 1.079076 12.611727 -1.807821 -0.513288 6.376503 -2.471396 -14.676425 25.979229 15.515097 -8.779200 13.761700 14.486500 -87.994790 2.833843 16.980618 14.627700 -22.983777 -2.682249 0.306760 0.454847 -8.080255 -7.125000 0.000000 0.000000 84.169902 1.581819 19.324813 -13.774466 22.609967 -2.678478 -0.027570 -0.572575 -10.362887 7.125000 0.000000 0.000000 
0.057542 17.844286 -29.769446 0.923499 34.773242 3.254095 -10.177923 -13.659110 -6.717792 -0.173434 7.727618 20.337625 0.662441 -0.142168 4.540273 2.022000 -8.911700 -25.519500 14.878566 -11.484997 -6.212611 -1.121184 -8.752870 22.616313 7.551580 -31.532505 -20.045948 -0.000400 -0.134300 0.369000 0.917562 12.594624 -1.903164 -0.837615 6.364775 -2.642657 -14.559325 25.798324 15.128195 -8.821700 13.692100 14.201600 -87.597075 2.970210 17.823172 14.767258 -23.159183 -2.727855 0.301369 0.458667 -8.324156 -7.125000 0.000000 0.000000 84.469452 1.355900 18.752503 -13.530198 22.284647 -2.598269 -0.033069 -0.570278 -10.062288 7.125000 0.000000 0.000000 
0.060618 17.843889 -29.774109 0.938694 34.664759 3.232526 -10.218374 -13.660565 -6.664425 -0.172825 7.729407 20.336671 0.638621 -0.041757 4.506723 2.002500 -8.871300 -25.393500 14.828404 -11.453267 -6.187833 -1.123303 -8.757802 22.626413 7.548483 -31.507395 -19.974354 -0.000400 -0.125200 0.344000 0.929438 12.547410 -1.906890 -0.817619 6.345285 -2.699274 -14.524095 25.716719 14.667510 -8.836900 13.643700 13.887700 -87.542434 2.983212 18.361245 14.856332 -23.279196 -2.757799 0.296542 0.456640 -8.355109 -7.125000 0.000000 0.000000 84.531281 1.175882 18.147172 -13.301992 21.970320 -2.523708 -0.038703 -0.566668 -9.689736 7.125000 0.000000 0.000000 
0.063693 17.844286 -29.778772 0.948298 34.536291 3.238845 -10.243262 -13.644417 -6.647460 -0.172842 7.728243 20.329857 0.615251 0.057550 4.482318 1.986600 -8.838000 -25.290000 14.786491 -11.396128 -6.189748 -1.123793 -8.759650 22.626879 7.548335 -31.486542 -19.887617 -0.000300 -0.116700 0.320500 0.990091 12.448828 -1.876119 -0.711670 6.302115 -2.704022 -14.522729 25.735837 14.103900 -8.822200 13.626700 13.538600 -87.609462 2.941009 18.669837 14.933674 -23.388866 -2.784570 0.291642 0.453133 -8.306390 -7.125000 0.000000 0.000000 84.576863 1.047854 17.504342 -13.069837 21.648919 -2.449560 -0.046489 -0.562262 -9.127497 7.125000 0.000000 0.000000 
0.066471 17.845476 -29.782641 0.940428 34.405867 3.252385 -10.243811 -13.602375 -6.659180 -0.172760 7.725994 20.322397 0.597852 0.132111 4.466462 1.976300 -8.816500 -25.222900 14.767799 -11.317342 -6.197101 -1.122331 -8.758106 22.617632 7.550556 -31.476299 -19.816515 -0.000300 -0.111400 0.306100 1.078615 12.321537 -1.828830 -0.561258 6.245808 -2.678692 -14.537423 25.803530 13.479957 -8.793600 13.625200 13.170500 -87.734466 2.880923 18.872123 15.015908 -23.508395 -2.813989 0.287401 0.450500 -8.221118 -7.125000 0.000000 0.000000 84.610500 0.962027 16.839521 -12.824218 21.307810 -2.373755 -0.057100 -0.557587 -8.495798 7.125000 0.000000 0.000000 
0.069348 17.846766 -29.787106 0.908686 34.255923 3.255929 -10.222712 -13.538089 -6.687049 -0.172114 7.724254 20.317057 0.581362 0.203875 4.455590 1.973500 -8.810600 -25.204700 14.769229 -11.215904 -6.201475 -1.118925 -8.753514 22.598501 7.554547 -31.471314 -19.743464 -0.000300 -0.111100 0.305300 1.146000 12.221088 -1.796835 -0.462399 6.202196 -2.668148 -14.501264 25.843042 12.795230 -8.755200 13.612000 12.759100 -87.811612 2.844153 19.157503 15.126422 -23.665007 -2.853565 0.282994 0.449335 -8.208999 -7.125000 0.000000 0.000000 84.654312 0.852297 16.169978 -12.583813 20.971704 -2.299961 -0.065913 -0.553132 -7.938911 7.125000 0.000000 0.000000 
0.072424 17.848056 -29.791372 0.858425 34.098016 3.246463 -10.185663 -13.460856 -6.716713 -0.170972 7.722991 20.313638 0.566147 0.270819 4.443464 1.980300 -8.824900 -25.249100 14.787932 -11.103188 -6.195636 -1.114179 -8.747070 22.573608 7.558047 -31.467927 -19.680786 -0.000300 -0.112600 0.309500 1.228467 12.107583 -1.751639 -0.349628 6.152174 -2.639625 -14.462251 25.911213 12.080807 -8.705000 13.609300 12.342600 -87.919406 2.793867 19.337515 15.237011 -23.822056 -2.893508 0.278917 0.445759 -8.106951 -7.125000 0.000000 0.000000 84.689667 0.772937 15.463604 -12.330136 20.615371 -2.223131 -0.074651 -0.548066 -7.326991 7.125000 0.000000 0.000000 
0.075500 17.849147 -29.795340 0.803436 33.939833 3.230731 -10.146437 -13.382824 -6.741802 -0.169894 7.721729 20.309579 0.550674 0.338699 4.431513 1.990600 -8.846500 -25.316300 14.810305 -10.988191 -6.183746 -1.109439 -8.740732 22.548825 7.562393 -31.469264 -19.625296 -0.000300 -0.110600 0.304000 1.230811 12.090509 -1.757923 -0.364345 6.148482 -2.663937 -14.385500 25.856871 11.437575 -8.697200 13.565500 11.959000 -87.862403 2.770231 19.725087 15.349081 -23.973682 -2.933110 0.274811 0.442665 -7.993361 -7.125000 0.000000 0.000000 84.803934 0.532836 14.712235 -12.126002 20.326801 -2.162238 -0.080389 -0.545093 -6.886505 7.125000 0.000000 0.000000 
0.079071 17.850139 -29.799706 0.768117 33.768180 3.228529 -10.128024 -13.309637 -6.762774 -0.169254 7.719813 20.302646 0.530848 0.423774 4.409929 1.999300 -8.864600 -25.372600 14.807788 -10.884294 -6.182596 -1.105665 -8.735498 22.527042 7.565000 -31.458106 -19.540760 -0.000200 -0.102100 0.280500 1.240344 12.062952 -1.753668 -0.357113 6.140418 -2.674434 -14.367497 25.846006 10.753225 -8.709500 13.543000 11.579100 -87.845749 2.731281 19.995005 15.454960 -24.119467 -2.971633 0.272377 0.440463 -7.848989 -7.125000 0.000000 0.000000 84.912162 0.291849 13.939998 -11.915661 20.028025 -2.100885 -0.088164 -0.541417 -6.315458 7.125000 0.000000 0.000000 
0.082940 17.850933 -29.804071 0.747753 33.588628 3.231184 -10.126275 -13.240208 -6.772864 -0.169392 7.716389 20.290418 0.508052 0.521002 4.386688 2.003500 -8.873300 -25.399800 14.786646 -10.788785 -6.184796 -1.103283 -8.732890 22.512834 7.563545 -31.433121 -19.446476 -0.000200 -0.090600 0.248800 1.260642 12.023226 -1.735430 -0.323994 6.126956 -2.671764 -14.393370 25.864420 10.049988 -8.732800 13.533000 11.207600 -87.870541 2.671081 20.158365 15.550796 -24.253087 -3.006856 0.270147 0.436663 -7.656620 -7.125000 0.000000 0.000000 85.012833 0.058017 13.143262 -11.702627 19.723429 -2.039641 -0.096751 -0.537071 -5.629319 7.125000 0.000000 0.000000 
0.086710 17.851330 -29.808138 0.737259 33.407633 3.230611 -10.135531 -13.168042 -6.771924 -0.170102 7.712198 20.275302 0.485265 0.617387 4.360351 2.002200 -8.870700 -25.391800 14.754873 -10.699787 -6.181365 -1.102062 -8.732665 22.505793 7.560013 -31.401268 -19.347618 -0.000100 -0.075300 0.206900 1.305622 11.957858 -1.701534 -0.245481 6.101754 -2.656934 -14.505835 25.923898 9.314587 -8.785900 13.543600 10.846900 -87.957432 2.602250 20.198933 15.638240 -24.377268 -3.039443 0.268150 0.431647 -7.460617 -7.125000 0.000000 0.000000 85.089457 -0.164300 12.328709 -11.493328 19.421506 -1.979693 -0.104574 -0.532208 -4.863479 7.125000 0.000000 0.000000 
0.090580 17.851528 -29.812702 0.738734 33.216917 3.233686 -10.157799 -13.092506 -6.767768 -0.170872 7.707982 20.259709 0.460820 0.720421 4.331674 1.994700 -8.854900 -25.342600 14.708164 -10.616140 -6.180602 -1.101726 -8.734121 22.503915 7.551971 -31.353947 -19.239825 -0.000100 -0.059900 0.164700 1.350259 11.898314 -1.665497 -0.160380 6.080095 -2.642538 -14.645073 25.982442 8.546783 -8.852100 13.553700 10.478000 -88.061073 2.521658 20.194285 15.715449 -24.488236 -3.068513 0.266233 0.425861 -7.286898 -7.125000 0.000000 0.000000 85.157504 -0.389054 11.488688 -11.285591 19.119919 -1.921811 -0.113757 -0.527171 -4.079102 7.125000 0.000000 0.000000 
0.094350 17.851628 -29.817067 0.732655 33.029523 3.227514 -10.174264 -13.014526 -6.760834 -0.171075 7.704447 20.246541 0.436448 0.822188 4.302281 1.981800 -8.828100 -25.259000 14.669826 -10.529836 -6.174205 -1.101500 -8.736894 22.505175 7.543322 -31.307206 -19.137906 0.000000 -0.043800 0.120300 1.390862 11.858533 -1.634145 -0.081028 6.069952 -2.636161 -14.786389 26.014254 7.540882 -8.931300 13.545900 9.985500 -88.147984 2.444064 20.216462 15.788391 -24.592358 -3.096010 0.264254 0.419707 -7.147808 -7.125000 0.000000 0.000000 85.230876 -0.614993 10.597619 -11.075081 18.812349 -1.864412 -0.123359 -0.522417 -3.325708 7.125000 0.000000 0.000000 
